<svg width="39" height="53" viewBox="0 0 39 53" fill="none" xmlns="http://www.w3.org/2000/svg">
<g clip-path="url(#clip0_8_145)">
<path d="M38.9609 17.0085C38.9663 17.7496 38.9785 18.4894 38.9785 19.2305C38.9798 28.2249 38.9595 37.2207 38.9893 46.2151C38.9988 49.0621 37.2281 51.645 34.6784 52.5893C34.2259 52.7566 33.7531 52.8645 33.2898 53C30.316 53 27.3423 53 24.3699 53C24.3685 50.6259 24.3685 48.2532 24.3672 45.8791C25.4049 45.7865 25.913 45.2168 25.9143 44.1093C25.9171 38.0462 25.9171 31.9845 25.9143 25.9213C25.9143 24.8332 25.4456 24.2981 24.3699 24.128C24.3713 21.7594 24.3726 19.3895 24.3726 17.021C24.3726 17.021 24.3889 16.9961 24.3875 16.9961C29.2471 17.0016 34.104 17.0057 38.9609 17.0085ZM32.6855 34.996C32.6855 31.9789 32.6869 28.9633 32.6855 25.9462C32.6855 24.8926 32.0258 24.1349 31.1357 24.1529C30.2523 24.1722 29.6319 24.9023 29.6319 25.9352C29.6305 28.572 29.6305 31.2101 29.6305 33.8469C29.6305 37.2774 29.6346 40.7079 29.6264 44.1383C29.6251 44.6886 29.7633 45.1629 30.1941 45.51C30.6859 45.9068 31.2305 45.998 31.8036 45.7077C32.4092 45.4007 32.6855 44.8794 32.6855 44.2005C32.6869 41.1324 32.6855 38.0642 32.6855 34.996Z" fill="#72BAFE"/>
<path d="M24.3685 45.8805C24.3699 48.2546 24.3699 50.6273 24.3712 53.0014C21.4313 53.0014 18.4915 53.0014 15.553 53.0014C15.0002 52.8106 14.4177 52.7373 13.8758 52.4912C11.6255 51.4638 10.2856 49.7272 9.86425 47.2425C9.78568 46.7793 9.7789 46.3188 9.7789 45.8556C9.7789 38.2743 9.7789 30.6916 9.77348 23.1103C9.77348 22.9002 9.86967 22.6596 9.67188 22.4771C11.4954 20.616 13.3203 18.7535 15.1438 16.8924C15.2996 17.0956 15.5205 17.0016 15.7101 17.003C18.5985 17.0154 21.4855 17.0182 24.3739 17.0237C24.3726 19.3923 24.3712 21.7622 24.3712 24.1308C23.1533 24.4806 22.8593 24.8816 22.8593 26.1965C22.8593 32.1435 22.8593 38.0904 22.8593 44.0374C22.8593 45.1339 23.3199 45.6939 24.3685 45.8805ZM16.0868 35.0098C16.0868 36.2335 16.0868 37.4572 16.0868 38.6822C16.0868 40.5101 16.0746 42.3367 16.0908 44.1646C16.1017 45.3952 17.1272 46.1612 18.1704 45.7519C18.8383 45.4892 19.158 44.9126 19.1594 43.9448C19.1607 38.0144 19.1607 32.084 19.158 26.1536C19.158 25.9131 19.1431 25.6697 19.1038 25.4333C18.9927 24.7668 18.4793 24.2829 17.7938 24.1764C17.2478 24.092 16.5948 24.4363 16.3062 24.9645C16.1287 25.2908 16.084 25.6434 16.0854 26.0126C16.0881 29.0103 16.0868 32.0107 16.0868 35.0098Z" fill="#9CCEFE"/>
<path d="M15.1735 3.90334C16.0392 3.03362 16.9103 2.16944 17.772 1.2942C19.4641 -0.42449 21.5301 -0.432786 23.2155 1.28175C24.0405 2.12105 24.8697 2.95758 25.6852 3.80793C26.364 4.51587 26.383 5.40218 25.6988 6.1032C22.4582 9.4272 19.2067 12.7387 15.9566 16.0531C15.8983 16.1125 15.8225 16.1568 15.7547 16.2079C15.6938 16.0157 15.5325 15.9079 15.4038 15.7765C13.9881 14.3275 12.5669 12.8825 11.1512 11.4321C10.6052 10.8721 10.0714 10.2997 9.53223 9.73277C9.65822 9.59589 9.78151 9.45485 9.91156 9.32073C10.9385 8.25744 11.9668 7.19553 12.995 6.13224C13.7605 5.42568 14.4907 4.68871 15.1735 3.90334Z" fill="#0081FE"/>
<path d="M9.53377 9.73001C10.073 10.2969 10.6068 10.8694 11.1527 11.4293C12.5671 12.8798 13.9883 14.3247 15.4054 15.7738C15.5341 15.9051 15.6953 16.013 15.7563 16.2052C15.5517 16.4333 15.3485 16.6615 15.1439 16.8896C13.3204 18.7507 11.4955 20.6132 9.67196 22.4743C8.4784 23.6883 7.28619 24.9051 6.09128 26.1177C5.2757 26.9445 4.44387 26.9432 3.62829 26.1135C2.79239 25.2632 1.95514 24.4156 1.12602 23.5583C-0.383208 21.9973 -0.373724 19.8333 1.14498 18.2695C1.91585 17.4759 2.69485 16.6891 3.46707 15.8954C3.59578 15.7627 3.75428 15.6521 3.8166 15.4627C4.61999 14.8211 5.32583 14.0786 5.9707 13.2725C6.11024 13.1522 6.25927 13.0416 6.38933 12.9116C7.44064 11.8538 8.48653 10.7919 9.53377 9.73001Z" fill="#72BAFE"/>
<path d="M38.9607 17.0085C34.1038 17.0044 29.2456 17.0016 24.3887 16.9974C24.386 16.0669 24.3697 15.1363 24.3833 14.2058C24.3995 13.0416 25.1609 12.0515 26.2556 11.7225C29.3268 10.8002 32.4103 9.92082 35.4613 8.93357C37.4149 8.30168 39.0948 9.74798 38.9959 11.634C38.9024 13.4218 38.9661 15.2165 38.9607 17.0085Z" fill="#FE5E94"/>
<path d="M5.97181 13.2739C5.32694 14.0786 4.6211 14.8211 3.81772 15.464C3.32051 14.9497 2.80841 14.4478 2.32746 13.9168C0.871074 12.3156 0.856172 9.8669 2.34236 8.29893C4.23228 6.30647 6.14794 4.34028 8.09069 2.40174C9.65275 0.843447 12.0656 0.854508 13.6629 2.37409C14.1804 2.86771 14.6708 3.39175 15.1735 3.90196C14.4907 4.68733 13.7591 5.42569 12.9963 6.12948C12.5425 5.66905 12.0968 5.19893 11.6334 4.74817C11.1389 4.26699 10.6417 4.24902 10.1649 4.72881C8.31558 6.58715 6.47308 8.45241 4.64007 10.3273C4.13609 10.8431 4.15506 11.3892 4.65361 11.9188C5.08579 12.3779 5.53151 12.8231 5.97181 13.2739Z" fill="#5A5B5C"/>
<path d="M24.3682 45.8805C23.3196 45.6939 22.859 45.1339 22.859 44.0374C22.8576 38.0904 22.859 32.1435 22.859 26.1965C22.859 24.8816 23.153 24.4806 24.3709 24.1308C25.4466 24.3008 25.9154 24.8359 25.9154 25.9241C25.9181 31.9872 25.9181 38.0489 25.9154 44.1121C25.914 45.2182 25.406 45.7879 24.3682 45.8805Z" fill="#5A5B5C"/>
<path d="M32.6855 34.996C32.6855 38.0641 32.6868 41.1323 32.6841 44.2005C32.6841 44.8794 32.4077 45.4007 31.8021 45.7077C31.2277 45.998 30.6831 45.9068 30.1927 45.51C29.7632 45.1629 29.6237 44.6886 29.625 44.1383C29.6331 40.7079 29.6291 37.2774 29.6291 33.8469C29.6291 31.2101 29.6277 28.572 29.6304 25.9352C29.6318 24.9023 30.2509 24.1722 31.1342 24.1529C32.0243 24.1335 32.6841 24.8926 32.6841 25.9462C32.6868 28.9633 32.6855 31.9789 32.6855 34.996Z" fill="#5A5B5C"/>
<path d="M16.0868 35.0098C16.0868 32.0107 16.0882 29.0103 16.0841 26.0112C16.0841 25.642 16.1274 25.2894 16.3049 24.9631C16.5935 24.4349 17.2465 24.0907 17.7925 24.175C18.478 24.2815 18.9914 24.7654 19.1025 25.4319C19.1418 25.6683 19.1567 25.9117 19.1567 26.1523C19.1594 32.0826 19.1594 38.013 19.1581 43.9434C19.1581 44.9112 18.8384 45.4878 18.1691 45.7505C17.1259 46.1612 16.1003 45.3938 16.0895 44.1632C16.0733 42.3353 16.0854 40.5088 16.0854 38.6808C16.0854 37.4585 16.0868 36.2335 16.0868 35.0098Z" fill="#5A5B5C"/>
<path d="M5.97153 13.2738C5.53123 12.8231 5.08551 12.3779 4.65333 11.9188C4.15477 11.3892 4.13581 10.8431 4.63978 10.3273C6.4728 8.4524 8.31394 6.58714 10.1632 4.73019C10.6415 4.25039 11.1373 4.26837 11.6318 4.74954C12.0951 5.2003 12.5409 5.66903 12.9947 6.13085C11.9664 7.19276 10.9381 8.25605 9.91123 9.31934C9.78117 9.45346 9.65788 9.5945 9.53189 9.73139C8.48464 10.7933 7.4374 11.8552 6.38745 12.9143C6.2601 13.0443 6.11107 13.1549 5.97153 13.2738Z" fill="#FEFEFE"/>
</g>
<defs>
<clipPath id="clip0_8_145">
<rect width="39" height="53" fill="white"/>
</clipPath>
</defs>
</svg>
