<svg width="49" height="66" viewBox="0 0 49 66" fill="none" xmlns="http://www.w3.org/2000/svg">
<g clip-path="url(#clip0_1_313)">
<path d="M48.4458 20.8961C48.4525 21.805 48.4675 22.7123 48.4675 23.6212C48.4692 34.6521 48.4442 45.6847 48.4808 56.7155C48.4925 60.2071 46.3132 63.3748 43.1751 64.533C42.6182 64.7382 42.0363 64.8704 41.466 65.0366C37.806 65.0366 34.146 65.0366 30.4877 65.0366C30.486 62.125 30.486 59.2151 30.4844 56.3035C31.7616 56.1899 32.3869 55.4912 32.3886 54.1329C32.3919 46.697 32.3919 39.2628 32.3886 31.8269C32.3886 30.4924 31.8116 29.8361 30.4877 29.6276C30.4894 26.7227 30.491 23.8162 30.491 20.9114C30.491 20.9114 30.5111 20.8808 30.5094 20.8808C36.4904 20.8876 42.4681 20.8927 48.4458 20.8961ZM40.7223 42.9562C40.7223 39.2561 40.724 35.5576 40.7223 31.8575C40.7223 30.5653 39.9103 29.636 38.8148 29.6581C37.7276 29.6818 36.964 30.5772 36.964 31.8439C36.9623 35.0777 36.9623 38.3132 36.9623 41.547C36.9623 45.7542 36.9673 49.9614 36.9573 54.1685C36.9556 54.8434 37.1257 55.4251 37.6559 55.8507C38.2612 56.3374 38.9315 56.4493 39.6368 56.0932C40.3822 55.7168 40.7223 55.0774 40.7223 54.2448C40.724 50.482 40.7223 46.7191 40.7223 42.9562Z" fill="#72BAFE"/>
<path d="M30.4861 56.3052C30.4878 59.2168 30.4878 62.1267 30.4894 65.0383C26.8711 65.0383 23.2528 65.0383 19.6362 65.0383C18.9559 64.8043 18.2389 64.7144 17.572 64.4126C14.8024 63.1526 13.1533 61.0228 12.6347 57.9755C12.538 57.4074 12.5297 56.8427 12.5297 56.2747C12.5297 46.9768 12.5297 37.6773 12.523 28.3795C12.523 28.1217 12.6414 27.8267 12.3979 27.6028C14.6423 25.3203 16.8883 23.0361 19.1327 20.7537C19.3244 21.0029 19.5962 20.8876 19.8296 20.8893C23.3846 20.9046 26.9378 20.908 30.4928 20.9148C30.4911 23.8196 30.4894 26.7261 30.4894 29.6309C28.9904 30.06 28.6286 30.5517 28.6286 32.1644C28.6286 39.4578 28.6286 46.7513 28.6286 54.0447C28.6286 55.3895 29.1955 56.0762 30.4861 56.3052ZM20.2932 42.9731C20.2932 44.4739 20.2932 45.9746 20.2932 47.4771C20.2932 49.7189 20.2782 51.959 20.2982 54.2007C20.3115 55.71 21.5738 56.6494 22.8577 56.1475C23.6797 55.8253 24.0732 55.1181 24.0749 53.9311C24.0766 46.658 24.0766 39.3849 24.0732 32.1118C24.0732 31.8168 24.0549 31.5183 24.0065 31.2283C23.8698 30.411 23.2378 29.8175 22.3941 29.6869C21.7222 29.5835 20.9185 30.0057 20.5633 30.6535C20.3449 31.0537 20.2898 31.4861 20.2915 31.9389C20.2948 35.6153 20.2932 39.2951 20.2932 42.9731Z" fill="#9CCEFE"/>
<path d="M19.1692 4.82373C20.2347 3.7571 21.3068 2.69726 22.3673 1.62384C24.4499 -0.483979 26.9927 -0.494154 29.067 1.60858C30.0825 2.63791 31.1029 3.66384 32.1067 4.70673C32.9421 5.57495 32.9654 6.66193 32.1234 7.52168C28.1349 11.5983 24.1331 15.6596 20.133 19.7243C20.0613 19.7973 19.9679 19.8515 19.8845 19.9143C19.8095 19.6786 19.6111 19.5463 19.4527 19.3852C17.7102 17.608 15.9611 15.836 14.2186 14.0571C13.5467 13.3703 12.8897 12.6683 12.2261 11.973C12.3811 11.8052 12.5329 11.6322 12.693 11.4677C13.9569 10.1637 15.2224 8.86133 16.488 7.55729C17.4301 6.69076 18.3288 5.78692 19.1692 4.82373Z" fill="#0081FE"/>
<path d="M12.228 11.9697C12.8916 12.6649 13.5486 13.367 14.2206 14.0537C15.9614 15.8326 17.7105 17.6046 19.4546 19.3818C19.613 19.5429 19.8114 19.6752 19.8865 19.9109C19.6347 20.1907 19.3846 20.4705 19.1328 20.7503C16.8884 23.0328 14.6424 25.3169 12.3981 27.5994C10.9291 29.0883 9.46176 30.5806 7.9911 32.0677C6.98731 33.0818 5.96352 33.0801 4.95973 32.0627C3.93093 31.0198 2.90047 29.9803 1.88001 28.9289C0.0225003 27.0144 0.0341721 24.3605 1.90335 22.4426C2.85211 21.4693 3.81088 20.5044 4.76131 19.531C4.91971 19.3682 5.1148 19.2326 5.1915 19.0003C6.18028 18.2134 7.04901 17.3028 7.8427 16.3142C8.01444 16.1666 8.19786 16.031 8.35793 15.8716C9.65185 14.5743 10.9391 13.272 12.228 11.9697Z" fill="#72BAFE"/>
<path d="M48.4455 20.8961C42.4678 20.891 36.4885 20.8876 30.5108 20.8825C30.5074 19.7413 30.4874 18.6001 30.5041 17.4588C30.5241 16.031 31.4612 14.8168 32.8085 14.4132C36.5885 13.2822 40.3836 12.2037 44.1386 10.9929C46.543 10.2179 48.6106 11.9917 48.4889 14.3047C48.3738 16.4973 48.4522 18.6984 48.4455 20.8961Z" fill="#FE5E94"/>
<path d="M7.84407 16.3159C7.05037 17.3028 6.18165 18.2134 5.19287 19.002C4.58093 18.3711 3.95064 17.7556 3.35871 17.1044C1.56623 15.1407 1.54789 12.1375 3.37705 10.2145C5.7031 7.77097 8.06083 5.3596 10.4519 2.98215C12.3744 1.07104 15.3441 1.0846 17.31 2.94824C17.947 3.55362 18.5506 4.19631 19.1692 4.82205C18.3288 5.78524 17.4284 6.69077 16.4896 7.55391C15.931 6.98922 15.3825 6.41266 14.8122 5.85985C14.2036 5.26973 13.5917 5.24768 13.0047 5.83611C10.7287 8.1152 8.46101 10.4028 6.20499 12.7022C5.58471 13.3347 5.60806 14.0046 6.22167 14.654C6.75357 15.217 7.30216 15.7631 7.84407 16.3159Z" fill="#5A5B5C"/>
<path d="M30.4862 56.3052C29.1956 56.0763 28.6287 55.3895 28.6287 54.0447C28.627 46.7513 28.6287 39.4579 28.6287 32.1644C28.6287 30.5517 28.9905 30.06 30.4895 29.631C31.8134 29.8395 32.3904 30.4958 32.3904 31.8303C32.3937 39.2662 32.3937 46.7004 32.3904 54.1363C32.3887 55.4929 31.7634 56.1916 30.4862 56.3052Z" fill="#5A5B5C"/>
<path d="M40.7223 42.9562C40.7223 46.7191 40.7239 50.482 40.7206 54.2448C40.7206 55.0775 40.3805 55.7168 39.6351 56.0932C38.9281 56.4493 38.2578 56.3374 37.6542 55.8507C37.1257 55.4251 36.9539 54.8434 36.9556 54.1685C36.9656 49.9614 36.9606 45.7542 36.9606 41.547C36.9606 38.3132 36.9589 35.0777 36.9622 31.8439C36.9639 30.5772 37.7259 29.6818 38.8131 29.6581C39.9086 29.6343 40.7206 30.5653 40.7206 31.8575C40.7239 35.5576 40.7223 39.2561 40.7223 42.9562Z" fill="#5A5B5C"/>
<path d="M20.2932 42.9732C20.2932 39.2951 20.2949 35.6153 20.2899 31.9372C20.2899 31.4844 20.3432 31.052 20.5617 30.6518C20.9168 30.004 21.7205 29.5818 22.3925 29.6852C23.2362 29.8158 23.8681 30.4093 24.0049 31.2267C24.0532 31.5166 24.0716 31.8151 24.0716 32.1101C24.0749 39.3832 24.0749 46.6563 24.0732 53.9294C24.0732 55.1165 23.6797 55.8236 22.856 56.1458C21.5721 56.6494 20.3099 55.7083 20.2965 54.1991C20.2765 51.9573 20.2915 49.7172 20.2915 47.4754C20.2915 45.9763 20.2932 44.4739 20.2932 42.9732Z" fill="#5A5B5C"/>
<path d="M7.84406 16.3159C7.30214 15.7631 6.75356 15.217 6.22166 14.654C5.60805 14.0046 5.5847 13.3347 6.20498 12.7022C8.461 10.4028 10.727 8.1152 13.0031 5.8378C13.5916 5.24937 14.2019 5.27142 14.8105 5.86154C15.3808 6.41436 15.9294 6.98922 16.488 7.5556C15.2224 8.85794 13.9568 10.162 12.6929 11.466C12.5328 11.6305 12.3811 11.8035 12.226 11.9713C10.9371 13.2737 9.6482 14.576 8.35595 15.875C8.19922 16.0344 8.0158 16.17 7.84406 16.3159Z" fill="#FEFEFE"/>
</g>
<defs>
<clipPath id="clip0_1_313">
<rect width="48" height="65" fill="white" transform="translate(0.494141 0.0366211)"/>
</clipPath>
</defs>
</svg>
